<svg xmlns="http://www.w3.org/2000/svg" width="15.955" height="14.137" viewBox="0 0 15.955 14.137">
  <g id="e7ad57d88389e39c341a116b93372789" transform="translate(0 -4)">
    <path id="Path_19" data-name="Path 19" d="M0,11.977H2.493v.5H0Zm13.462,0h2.493v.5H13.462ZM7.728,4h.5V6.742h-.5ZM1.672,6.566,3.666,8.56l-.353.353L1.32,6.918ZM12.288,8.56l1.994-1.994.353.353L12.641,8.913ZM9.546,18.137l.353-.389L8.154,15.966H7.8L6.056,17.748l.353.371,1.569-1.56Z"/>
    <path id="Path_20" data-name="Path 20" d="M12.963,21.986A4.986,4.986,0,1,0,3.527,24.23H0v.5H15.955v-.5H12.428a4.975,4.975,0,0,0,.535-2.244Zm-9.473,0a4.487,4.487,0,1,1,8.371,2.244H4.094A4.476,4.476,0,0,1,3.49,21.986Z" transform="translate(0 -9.759)"/>
  </g>
</svg>
