<svg xmlns="http://www.w3.org/2000/svg" width="15.955" height="14.137" viewBox="0 0 15.716 14.137">
  <g id="_5f3110c083a174971e13eb8b6122f96e" data-name="5f3110c083a174971e13eb8b6122f96e" transform="translate(-274 -207.701)">
    <path id="Path_22" data-name="Path 22" d="M533.642,216.566a3.308,3.308,0,1,1,2.339-.969A3.286,3.286,0,0,1,533.642,216.566Zm0-5.965a2.658,2.658,0,1,0,2.658,2.658A2.661,2.661,0,0,0,533.642,210.6Zm0-1.322a.325.325,0,0,1-.325-.325v-.928a.325.325,0,1,1,.649,0v.928A.325.325,0,0,1,533.642,209.278Zm-2.53.822a.324.324,0,0,1-.263-.134l-.546-.751a.325.325,0,1,1,.525-.382l.546.751a.325.325,0,0,1-.262.516Zm-1.564,2.152a.324.324,0,0,1-.1-.016l-.883-.287a.325.325,0,1,1,.2-.618l.883.287a.325.325,0,0,1-.1.634Zm-.883,2.947a.325.325,0,0,1-.1-.634l.883-.287a.325.325,0,1,1,.2.618l-.883.287A.325.325,0,0,1,528.666,215.2Zm1.9,2.616a.325.325,0,0,1-.262-.516l.545-.751a.325.325,0,0,1,.525.382l-.546.751A.324.324,0,0,1,530.566,217.816Zm3.076,1a.325.325,0,0,1-.325-.325v-.928a.325.325,0,1,1,.649,0v.928A.325.325,0,0,1,533.642,218.816Zm3.076-1a.324.324,0,0,1-.263-.134l-.546-.751a.325.325,0,1,1,.525-.382l.546.751a.325.325,0,0,1-.262.516Zm1.9-2.616a.325.325,0,0,1-.1-.016l-.883-.287a.325.325,0,1,1,.2-.618l.883.287a.325.325,0,0,1-.1.634Zm-.883-2.947a.325.325,0,0,1-.1-.634l.883-.287a.325.325,0,0,1,.2.618l-.883.287A.326.326,0,0,1,537.736,212.253Zm-1.564-2.152a.325.325,0,0,1-.263-.516l.545-.751a.325.325,0,1,1,.525.382l-.545.751A.325.325,0,0,1,536.172,210.1Z" transform="translate(-251.588)"/>
    <g id="Group_6" data-name="Group 6" transform="translate(288.114 220.739)">
      <path id="Path_23" data-name="Path 23" d="M1579.279,1412.909h-.953a.325.325,0,0,1,0-.65h.953a.325.325,0,0,1,0,.65Z" transform="translate(-1578.002 -1412.26)"/>
    </g>
    <g id="Group_7" data-name="Group 7" transform="translate(278.827 220.739)">
      <path id="Path_24" data-name="Path 24" d="M728.2,1412.909h-7.88a.325.325,0,0,1,0-.65h7.88a.325.325,0,0,1,0,.65Z" transform="translate(-720 -1412.26)"/>
    </g>
    <g id="Group_8" data-name="Group 8" transform="translate(274 220.739)">
      <path id="Path_25" data-name="Path 25" d="M277.529,1412.909h-3.2a.325.325,0,0,1,0-.65h3.2a.325.325,0,0,1,0,.65Z" transform="translate(-274 -1412.26)"/>
    </g>
    <g id="Group_9" data-name="Group 9" transform="translate(280.803 222.471)">
      <path id="Path_26" data-name="Path 26" d="M909.227,1572.929h-6.414a.325.325,0,0,1,0-.649h6.414a.325.325,0,1,1,0,.649Z" transform="translate(-902.488 -1572.28)"/>
    </g>
    <g id="Group_10" data-name="Group 10" transform="translate(275.85 222.471)">
      <path id="Path_27" data-name="Path 27" d="M448.869,1572.929h-3.621a.325.325,0,0,1,0-.649h3.621a.325.325,0,0,1,0,.649Z" transform="translate(-444.923 -1572.28)"/>
    </g>
    <g id="Group_11" data-name="Group 11" transform="translate(284.196 224.203)">
      <path id="Path_28" data-name="Path 28" d="M1217.933,1732.949h-1.628a.325.325,0,1,1,0-.649h1.628a.325.325,0,1,1,0,.649Z" transform="translate(-1215.981 -1732.3)"/>
    </g>
    <g id="Group_12" data-name="Group 12" transform="translate(277.243 224.203)">
      <path id="Path_29" data-name="Path 29" d="M579.59,1732.949h-5.638a.325.325,0,1,1,0-.649h5.638a.325.325,0,1,1,0,.649Z" transform="translate(-573.628 -1732.3)"/>
    </g>
  </g>
</svg>
