<svg xmlns="http://www.w3.org/2000/svg" width="15.955" height="14.137" viewBox="0 0 15.716 14.137">
  <g id="Group_14" data-name="Group 14" transform="translate(-318.045 -649.046)">
    <path id="_0bfcd8a6ddc982eaee2cb823f7a6f579" data-name="0bfcd8a6ddc982eaee2cb823f7a6f579" d="M6.437,8.887A4.443,4.443,0,1,0,6.437,0,5.309,5.309,0,0,0,4.722.287L4.433.4l.274.144A3.6,3.6,0,0,1,6.715,3.61,3.475,3.475,0,0,1,3.243,7.082h-.1L2.8,7.074,3,7.31A4.542,4.542,0,0,0,6.437,8.887ZM6.993,3.61A3.831,3.831,0,0,0,5.113.453,5.312,5.312,0,0,1,6.437.278a4.166,4.166,0,1,1,0,8.331A4.281,4.281,0,0,1,3.416,7.355,3.754,3.754,0,0,0,6.993,3.61Z" transform="translate(320.883 648.135) rotate(19)"/>
    <g id="_5f3110c083a174971e13eb8b6122f96e" data-name="5f3110c083a174971e13eb8b6122f96e" transform="translate(44.045 441.472)">
      <g id="Group_6" data-name="Group 6" transform="translate(288.114 220.739)">
        <path id="Path_23" data-name="Path 23" d="M1579.279,1412.909h-.953a.325.325,0,0,1,0-.65h.953a.325.325,0,0,1,0,.65Z" transform="translate(-1578.002 -1412.26)"/>
      </g>
      <g id="Group_7" data-name="Group 7" transform="translate(278.827 220.739)">
        <path id="Path_24" data-name="Path 24" d="M728.2,1412.909h-7.88a.325.325,0,0,1,0-.65h7.88a.325.325,0,0,1,0,.65Z" transform="translate(-720 -1412.26)"/>
      </g>
      <g id="Group_8" data-name="Group 8" transform="translate(274 220.739)">
        <path id="Path_25" data-name="Path 25" d="M277.529,1412.909h-3.2a.325.325,0,0,1,0-.65h3.2a.325.325,0,0,1,0,.65Z" transform="translate(-274 -1412.26)"/>
      </g>
      <g id="Group_9" data-name="Group 9" transform="translate(280.803 222.471)">
        <path id="Path_26" data-name="Path 26" d="M909.227,1572.929h-6.414a.325.325,0,0,1,0-.649h6.414a.325.325,0,1,1,0,.649Z" transform="translate(-902.488 -1572.28)"/>
      </g>
      <g id="Group_10" data-name="Group 10" transform="translate(275.85 222.471)">
        <path id="Path_27" data-name="Path 27" d="M448.869,1572.929h-3.621a.325.325,0,0,1,0-.649h3.621a.325.325,0,0,1,0,.649Z" transform="translate(-444.923 -1572.28)"/>
      </g>
      <g id="Group_11" data-name="Group 11" transform="translate(284.196 224.203)">
        <path id="Path_28" data-name="Path 28" d="M1217.933,1732.949h-1.628a.325.325,0,1,1,0-.649h1.628a.325.325,0,1,1,0,.649Z" transform="translate(-1215.981 -1732.3)"/>
      </g>
      <g id="Group_12" data-name="Group 12" transform="translate(277.243 224.203)">
        <path id="Path_29" data-name="Path 29" d="M579.59,1732.949h-5.638a.325.325,0,1,1,0-.649h5.638a.325.325,0,1,1,0,.649Z" transform="translate(-573.628 -1732.3)"/>
      </g>
    </g>
  </g>
</svg>
